<?xml version="1.0" encoding="UTF-8"?>
<svg width="78" height="62" version="1.1" viewBox="0 0 20.638 16.404" xmlns="http://www.w3.org/2000/svg">
 <g id="ar" transform="matrix(.26458 0 0 .26458 -.52932 -.52901)" fill="none" fill-rule="evenodd">
  <g transform="translate(6,6)" fill="#7ac70c" fill-rule="nonzero" stroke="#fff" stroke-width="4">
   <path d="m57.437-2h-44.874c-4.9348 0-6.6962.58451-8.4928 1.5453-1.9507 1.0433-3.4817 2.5742-4.5249 4.5249-.96081 1.7966-1.5453 3.5579-1.5453 8.4928v28.874c0 4.9348.58451 6.6962 1.5453 8.4928 1.0433 1.9507 2.5742 3.4817 4.5249 4.5249 1.7966.96081 3.5579 1.5453 8.4928 1.5453h44.874c4.9348 0 6.6962-.58451 8.4928-1.5453 1.9507-1.0433 3.4817-2.5742 4.5249-4.5249.96081-1.7966 1.5453-3.5579 1.5453-8.4928v-28.874c0-4.9348-.58451-6.6962-1.5453-8.4928-1.0433-1.9507-2.5742-3.4817-4.5249-4.5249-1.7966-.96081-3.5579-1.5453-8.4928-1.5453z"/>
  </g>
  <g transform="translate(27,12)">
   <g transform="translate(0,5)">
    <path d="m14.5 30.055c8.0081 0 14.5-6.268 14.5-14 0-7.732-6.4919-14-14.5-14-8.0081 0-14.5 6.268-14.5 14 0 7.732 6.4919 14 14.5 14z" stroke="#fff" stroke-width="3.2"/>
    <path id="Path-6-Copy" d="m15.341 2.6627c2.1741 0 4.1017.052747 4.6586-2.6627" stroke="#7ac70c" stroke-linecap="round" stroke-linejoin="round" stroke-width="6.4"/>
    <path transform="rotate(102 9.8551 32.237)" d="m7.7789 26.363 4.2881 8.291c.50743.98112.12342 2.1878-.8577 2.6952-.37102.19189-.7928.2628-1.2062.20277l-2.5073-.36407c-.87448-.12698-1.4805-.93883-1.3535-1.8133.00273-.01877.00578-.03749.00918-.05615l1.6274-8.9555z" fill="#fff"/>
    <path id="Triangle-Copy" transform="matrix(.20791 .97815 .97815 -.20791 -16.368 20.213)" d="m17.069 26.363 4.2881 8.291c.50742.98112.12342 2.1878-.8577 2.6952-.37102.19189-.7928.2628-1.2062.20277l-2.5073-.36407c-.87448-.12698-1.4805-.93883-1.3535-1.8133.0027-.01877.0058-.03749.0092-.05615l1.6274-8.9555z" fill="#fff"/>
    <path d="m15.071 1.8683-3.886.78105-.38333.93455c1.1183-.17474 2.4358-.31497 3.9526-.41998 1.3811-.095622 2.5266-.61788 3.438-1.5642z" stroke="#fff"/>
   </g>
   <g transform="translate(5,9)">
    <circle cx="9.5" cy="11.5" r="9.5" fill="#fff"/>
    <circle id="Oval-Copy" cx="9.5" cy="7.5" r="7.5" fill="#7ac70c"/>
   </g>
   <path transform="rotate(226 17 5)" d="m16.933.99986c1.2567.93206 2.0671 2.4001 2.0671 4.0514 0 1.5915-.75277 3.0128-1.9323 3.9481-1.2573-.93131-2.0677-2.3994-2.0677-4.0507 0-1.5889.75026-3.0081 1.9264-3.9434z" fill="#fff" stroke="#fff" stroke-linecap="round" stroke-linejoin="round" stroke-width=".75874"/>
   <path id="Combined-Shape-Copy" transform="matrix(.69466 -.71934 -.71934 -.69466 7.2608 17.105)" d="m11.933.99986c1.2567.93206 2.0671 2.4001 2.0671 4.0514 0 1.5915-.75277 3.0128-1.9323 3.9481-1.2573-.93131-2.0677-2.3994-2.0677-4.0507 0-1.5889.75026-3.0081 1.9264-3.9434z" fill="#fff" stroke="#fff" stroke-linecap="round" stroke-linejoin="round" stroke-width=".75874"/>
  </g>
 </g>
</svg>
