<?xml version="1.0" encoding="UTF-8" standalone="no"?>
<svg
   width="78"
   height="62"
   version="1.1"
   viewBox="0 0 20.638 16.404"
   id="svg27"
   sodipodi:docname="ar.svg"
   inkscape:version="1.1 (c4e8f9ed74, 2021-05-24)"
   xmlns:inkscape="http://www.inkscape.org/namespaces/inkscape"
   xmlns:sodipodi="http://sodipodi.sourceforge.net/DTD/sodipodi-0.dtd"
   xmlns="http://www.w3.org/2000/svg"
   xmlns:svg="http://www.w3.org/2000/svg">
  <defs
     id="defs31" />
  <sodipodi:namedview
     id="namedview29"
     pagecolor="#ffffff"
     bordercolor="#666666"
     borderopacity="1.0"
     inkscape:pageshadow="2"
     inkscape:pageopacity="0.0"
     inkscape:pagecheckerboard="true"
     showgrid="false"
     showguides="false"
     inkscape:zoom="4.4623805"
     inkscape:cx="77.985282"
     inkscape:cy="43.13841"
     inkscape:window-width="1920"
     inkscape:window-height="1096"
     inkscape:window-x="0"
     inkscape:window-y="30"
     inkscape:window-maximized="1"
     inkscape:current-layer="svg27" />
  <g
     id="ar"
     transform="matrix(0.26458974,0,0,0.26458974,-0.52955933,-0.52933143)"
     fill="none"
     fill-rule="evenodd">
    <g
       transform="translate(6,6)"
       fill="#7ac70c"
       fill-rule="nonzero"
       stroke="#ffffff"
       stroke-width="4"
       id="g4">
      <path
         d="m 57.438436,-2.0004916 h -44.874 c -4.9347997,0 -6.6961997,0.58451 -8.4927997,1.54529994 -1.9507,1.0433 -3.48169992,2.57420006 -4.52489992,4.52490006 -0.96081008,1.7966 -1.54530008,3.5579 -1.54530008,8.4928006 v 28.874 c 0,4.9348 0.58451,6.6962 1.54530008,8.4928 1.0433,1.9507 2.57419992,3.4817 4.52489992,4.5249 1.7966,0.96081 3.5579,1.5453 8.4927997,1.5453 h 44.874 c 4.9348,0 6.6962,-0.58451 8.4928,-1.5453 1.9507,-1.0433 3.4817,-2.5742 4.5249,-4.5249 0.96081,-1.7966 1.5453,-3.5579 1.5453,-8.4928 v -28.874 c 0,-4.9348006 -0.58451,-6.6962006 -1.5453,-8.4928006 -1.0433,-1.9507 -2.5742,-3.48170006 -4.5249,-4.52490006 -1.7966,-0.96080994 -3.5579,-1.54529994 -8.4928,-1.54529994 z"
         id="path2"
         style="stroke:none" />
    </g>
    <g
       transform="translate(27,12)"
       id="g24">
      <g
         transform="translate(0,5)"
         id="g14">
        <path
           d="m 14.5,30.055 c 8.0081,0 14.5,-6.268 14.5,-14 0,-7.732 -6.4919,-14 -14.5,-14 -8.0081,0 -14.5,6.268 -14.5,14 0,7.732 6.4919,14 14.5,14 z"
           stroke="#ffffff"
           stroke-width="3.2"
           id="path6" />
        <path
           id="Path-6-Copy"
           d="m 15.341,2.6627 c 2.1741,0 4.1017,0.052747 4.6586,-2.6627"
           stroke="#7ac70c"
           stroke-linecap="round"
           stroke-linejoin="round"
           stroke-width="6.4" />
        <path
           transform="rotate(102,9.8551,32.237)"
           d="m 7.7789,26.363 4.2881,8.291 c 0.50743,0.98112 0.12342,2.1878 -0.8577,2.6952 -0.37102,0.19189 -0.7928,0.2628 -1.2062,0.20277 L 7.4958,37.1879 C 6.62132,37.06092 6.0153,36.24907 6.1423,35.3746 6.14503,35.35583 6.14808,35.33711 6.15148,35.31845 l 1.6274,-8.9555 z"
           fill="#ffffff"
           id="path9" />
        <path
           id="Triangle-Copy"
           transform="matrix(0.20791,0.97815,0.97815,-0.20791,-16.368,20.213)"
           d="m 17.069,26.363 4.2881,8.291 c 0.50742,0.98112 0.12342,2.1878 -0.8577,2.6952 -0.37102,0.19189 -0.7928,0.2628 -1.2062,0.20277 L 16.7859,37.1879 c -0.87448,-0.12698 -1.4805,-0.93883 -1.3535,-1.8133 0.0027,-0.01877 0.0058,-0.03749 0.0092,-0.05615 l 1.6274,-8.9555 z"
           fill="#ffffff" />
        <path
           d="M 15.071,1.8683 11.185,2.64935 10.80167,3.5839 c 1.1183,-0.17474 2.4358,-0.31497 3.9526,-0.41998 1.3811,-0.095622 2.5266,-0.61788 3.438,-1.5642 z"
           stroke="#ffffff"
           id="path12" />
      </g>
      <g
         transform="translate(5,9)"
         id="g19">
        <circle
           cx="9.5"
           cy="11.5"
           r="9.5"
           fill="#ffffff"
           id="circle16" />
        <circle
           id="Oval-Copy"
           cx="9.5"
           cy="7.5"
           r="7.5"
           fill="#7ac70c" />
      </g>
      <path
         transform="rotate(-134,17,5)"
         d="m 16.933,0.99986 c 1.2567,0.93206 2.0671,2.4001 2.0671,4.0514 0,1.5915 -0.75277,3.0128 -1.9323,3.9481 -1.2573,-0.93131 -2.0677,-2.3994 -2.0677,-4.0507 0,-1.5889 0.75026,-3.0081 1.9264,-3.9434 z"
         fill="#ffffff"
         stroke="#ffffff"
         stroke-linecap="round"
         stroke-linejoin="round"
         stroke-width="0.75874"
         id="path21" />
      <path
         id="Combined-Shape-Copy"
         transform="matrix(0.69466,-0.71934,-0.71934,-0.69466,7.2608,17.105)"
         d="m 11.933,0.99986 c 1.2567,0.93206 2.0671,2.4001 2.0671,4.0514 0,1.5915 -0.75277,3.0128 -1.9323,3.9481 -1.2573,-0.93131 -2.0677,-2.3994 -2.0677,-4.0507 0,-1.5889 0.75026,-3.0081 1.9264,-3.9434 z"
         fill="#ffffff"
         stroke="#ffffff"
         stroke-linecap="round"
         stroke-linejoin="round"
         stroke-width="0.75874" />
    </g>
  </g>
</svg>
