<?xml version="1.0" encoding="UTF-8" standalone="no"?>
<svg
   role="img"
   viewBox="0 0 24 24"
   version="1.1"
   id="svg6"
   sodipodi:docname="archlinux.svg"
   inkscape:version="1.1.2 (0a00cf5339, 2022-02-04)"
   xmlns:inkscape="http://www.inkscape.org/namespaces/inkscape"
   xmlns:sodipodi="http://sodipodi.sourceforge.net/DTD/sodipodi-0.dtd"
   xmlns="http://www.w3.org/2000/svg"
   xmlns:svg="http://www.w3.org/2000/svg"
   xmlns:rdf="http://www.w3.org/1999/02/22-rdf-syntax-ns#"
   xmlns:cc="http://creativecommons.org/ns#"
   xmlns:dc="http://purl.org/dc/elements/1.1/">
  <defs
     id="defs10" />
  <sodipodi:namedview
     id="namedview8"
     pagecolor="#ffffff"
     bordercolor="#666666"
     borderopacity="1.0"
     inkscape:pageshadow="2"
     inkscape:pageopacity="0.0"
     inkscape:pagecheckerboard="0"
     showgrid="false"
     inkscape:zoom="26.25"
     inkscape:cx="15.561905"
     inkscape:cy="12"
     inkscape:window-width="1920"
     inkscape:window-height="1007"
     inkscape:window-x="0"
     inkscape:window-y="0"
     inkscape:window-maximized="1"
     inkscape:current-layer="svg6" />
  <title
     id="title2">Arch Linux</title>
  <path
     d="M11.39.605C10.376 3.092 9.764 4.72 8.635 7.132c.693.734 1.543 1.589 2.923 2.554-1.484-.61-2.496-1.224-3.252-1.86C6.86 10.842 4.596 15.138 0 23.395c3.612-2.085 6.412-3.37 9.021-3.862a6.61 6.61 0 01-.171-1.547l.003-.115c.058-2.315 1.261-4.095 2.687-3.973 1.426.12 2.534 2.096 2.478 4.409a6.52 6.52 0 01-.146 1.243c2.58.505 5.352 1.787 8.914 3.844-.702-1.293-1.33-2.459-1.929-3.57-.943-.73-1.926-1.682-3.933-2.713 1.38.359 2.367.772 3.137 1.234-6.09-11.334-6.582-12.84-8.67-17.74zM22.898 21.36v-.623h-.234v-.084h.562v.084h-.234v.623h.331v-.707h.142l.167.5.034.107a2.26 2.26 0 01.038-.114l.17-.493H24v.707h-.091v-.593l-.206.593h-.084l-.205-.602v.602h-.091"
     id="path4"
     style="fill:#1793d1;fill-opacity:1" />
  <metadata
     id="metadata899">
    <rdf:RDF>
      <cc:Work
         rdf:about="">
        <dc:title>Arch Linux</dc:title>
      </cc:Work>
    </rdf:RDF>
  </metadata>
</svg>
