<?xml version="1.0" encoding="UTF-8"?>
<!-- Created with Inkscape (http://www.inkscape.org/) -->
<svg width="78" height="62" version="1.1" viewBox="0 0 20.638 16.404" xmlns="http://www.w3.org/2000/svg">
 <g transform="translate(-24.096 -165.28)">
  <g id="eo" transform="matrix(.26458 0 0 .26458 23.566 164.75)" fill="none" fill-rule="evenodd">
   <g transform="translate(6,6)" fill-rule="nonzero">
    <path d="m57.437-2h-44.874c-4.9348 0-6.6962 0.58451-8.4928 1.5453-1.9507 1.0433-3.4817 2.5742-4.5249 4.5249-0.96081 1.7966-1.5453 3.5579-1.5453 8.4928v28.874c0 4.9348 0.58451 6.6962 1.5453 8.4928 1.0433 1.9507 2.5742 3.4817 4.5249 4.5249 1.7966 0.96081 3.5579 1.5453 8.4928 1.5453h44.874c4.9348 0 6.6962-0.58451 8.4928-1.5453 1.9507-1.0433 3.4817-2.5742 4.5249-4.5249 0.96081-1.7966 1.5453-3.5579 1.5453-8.4928v-28.874c0-4.9348-0.58451-6.6962-1.5453-8.4928-1.0433-1.9507-2.5742-3.4817-4.5249-4.5249-1.7966-0.96081-3.5579-1.5453-8.4928-1.5453z" fill="#7ac70c" stroke="#fff" stroke-width="4"/>
    <path d="m12.563 0h22.437v27c0 2.2091-1.7909 4-4 4h-31v-18.437c0-4.3684 0.45485-5.9525 1.309-7.5496 0.8541-1.597 2.1075-2.8504 3.7045-3.7045s3.1811-1.309 7.5496-1.309z" fill="#eee"/>
    <path d="m16.597 22.712-3.4173 1.7966c-1.0414 0.54748-2.3294 0.14711-2.8769-0.89427-0.21801-0.41468-0.29324-0.88967-0.21404-1.3514l0.65265-3.8052c0.04822-0.28114-0.04499-0.56801-0.24925-0.76711l-2.7647-2.6949c-0.84249-0.82123-0.85973-2.1699-0.038504-3.0124 0.32702-0.33548 0.75551-0.55381 1.2191-0.62118l3.8207-0.55518c0.28228-0.04102 0.52631-0.21831 0.65255-0.4741l1.7087-3.4621c0.52069-1.055 1.7981-1.4882 2.8531-0.96751 0.42012 0.20734 0.76017 0.54739 0.96751 0.96751l1.7087 3.4621c0.12624 0.25579 0.37026 0.43308 0.65255 0.4741l3.8207 0.55518c1.1643 0.16918 1.971 1.2502 1.8018 2.4145-0.06737 0.46363-0.2857 0.89212-0.62118 1.2191l-2.7647 2.6949c-0.20426 0.19911-0.29747 0.48597-0.24925 0.76711l0.65265 3.8052c0.19889 1.1596-0.57992 2.2609-1.7395 2.4597-0.46176 0.0792-0.93674 4e-3 -1.3514-0.21404l-3.4173-1.7966c-0.25248-0.13274-0.55411-0.13274-0.80659 0z" fill="#7ac70c"/>
   </g>
  </g>
 </g>
</svg>
