<?xml version="1.0" encoding="UTF-8"?>
<svg width="648" height="1048" version="1.1" viewBox="1 1 648 1048" xmlns="http://www.w3.org/2000/svg" xmlns:cc="http://creativecommons.org/ns#" xmlns:dc="http://purl.org/dc/elements/1.1/" xmlns:rdf="http://www.w3.org/1999/02/22-rdf-syntax-ns#">
 <title>Woman-power symbol (clenched fist in Venus sign)</title>
 <g transform="translate(0,1025)scale(1,-1)" fill="none" stroke="#c36">
  <circle cx="325" cy="700" r="255" stroke-width="90"/>
  <path d="M325,0V445M95,230H555" stroke-width="100"/>
  <path d="m375 445v90c70 31 118 83 118 133 0 24-18 46-48 46-25 0-40-7-65-7-50 0-42 24-53 24s-22-13-22-33c0-30 25-45 50-45 15 0 20 6 29 6 6 0 9-1 9-4 0-5-11-14-25-14-50 0-56 34-118 34-38 0-62-24-62-63 0-49 32-70 87-77v-90zm94 347c0 20-24 52-39 52s-25-84-25-94c0-15 15-33 30-33 11 0 34 55 34 75zm-65 44c0 25-39 37-53 37-19 0-25-50-25-100 0-20 9-46 34-46s44 56 44 109zm-84 5c0 14-6 27-17 27-20 0-58-25-58-50 0-50 10-100 35-100 27 0 40 95 40 123zm-79-123c0 45-6 98-21 98-20 0-45-16-45-38 0-42 20-95 50-95 11 0 16 8 16 35z" fill="#c36" stroke="none"/>
 </g>
 <metadata>
  <rdf:RDF>
   <cc:Work rdf:about="">
    <dc:title>Woman-power symbol (clenched fist in Venus sign)</dc:title>
   </cc:Work>
  </rdf:RDF>
 </metadata>
</svg>
