<?xml version="1.0" encoding="UTF-8"?>
<svg width="300pt" height="426pt" version="1.0" viewBox="0 0 300 426" xmlns="http://www.w3.org/2000/svg" xmlns:cc="http://creativecommons.org/ns#" xmlns:dc="http://purl.org/dc/elements/1.1/" xmlns:rdf="http://www.w3.org/1999/02/22-rdf-syntax-ns#" xmlns:xlink="http://www.w3.org/1999/xlink">
 <defs></defs>
 <metadata>Created by potrace 1.10, written by Peter Selinger 2001-2011
  <rdf:RDF>
   <cc:Work rdf:about="">
    <dc:format>image/svg+xml</dc:format>
    <dc:type rdf:resource="http://purl.org/dc/dcmitype/StillImage"/>
   </cc:Work>
  </rdf:RDF>
 </metadata>
 <g>
  <rect x="-331.13" y="-150.9" width="0" height="32.477" fill="#fff" fill-rule="evenodd" stroke-width=".20262"/>
  <rect x="-311.02" y="-161.72" width="0" height="15.465" fill="#fff" fill-rule="evenodd" stroke-width=".20262"/>
  <path d="m88.154 424.11c-10.435-0.3656-14.023-0.91173-14.521-2.2104-0.74149-1.9323 0.48807-12.367 5.0648-42.984 1.7151-11.474 4.2088-28.868 5.5413-38.655 1.3326-9.7864 3.281-22.91 4.33-29.164 1.049-6.2538 1.5196-12.052 1.0458-12.885-2.3436-4.1202-13.95-21.467-31.801-47.532-34.38-50.197-52.933-77.798-55.018-81.85-3.2028-6.2237-2.4585-8.8876 5.6733-20.304 4.2047-5.9031 10.13-14.347 13.167-18.763 15.252-22.181 42.706-60.849 45.004-63.389 1.1039-1.2198 2.9795-2.2178 4.1682-2.2178 1.9653 0 75.206 31.834 88.247 38.357 3.4886 1.7448 5.9181 3.9439 6.6374 6.0078 1.3381 3.8391-1.2876 24.536-3.4958 27.556-1.6827 2.3012-6.5107 3.3008-29.277 6.0616-21.812 2.6451-24.489 1.8276-37.295-11.391-4.8633-5.02-9.3687-8.802-10.012-8.4044-1.3924 0.8605 1.27 11.843 3.8362 15.825 5.0388 7.819 3.0964 11.465-6.9798 13.102-7.6879 1.249-10.603 2.8871-8.619 4.8442 0.64117 0.63263 9.8189 4.416 20.395 8.4074 14.222 5.3675 20.044 8.1834 22.356 10.814 1.7199 1.9564 3.1447 3.892 3.166 4.3014 0.0214 0.40933 2.7374 5.3792 6.0357 11.044 50.789 87.232 49.646 85.147 48.723 88.826-0.46435 1.85-3.593 4.9339-8.1342 8.0177-4.0587 2.7563-7.0356 5.5678-6.6153 6.2478 0.42026 0.68007 3.6095 1.0642 7.087 0.85351l6.3229-0.383-0.29931 11.658c-0.16472 6.4118-1.6912 28.5-3.3922 49.085-5.0669 61.318-5.4692 65.437-6.5632 67.208-0.99157 1.6043-48.748 2.828-74.778 1.916zm89.021-0.17895c-4.8758-0.561-6.1357-3.9252-5.2911-14.128 2.4878-30.052 4.469-52.401 5.0227-56.657 0.35122-2.6997 1.7116-16.46 3.023-30.579 1.3114-14.118 2.9396-26.225 3.6184-26.904 0.82731-0.82736 3.0739-0.81307 6.8164 0.0434 3.0702 0.70258 5.8537 0.83821 6.1855 0.30142 0.33172-0.5368-2.628-6.3994-6.5772-13.028-3.9493-6.6286-11.205-18.955-16.123-27.391-4.9186-8.4365-10.185-17.272-11.703-19.634-1.5181-2.3622-9.8067-16.342-18.419-31.066-10.843-18.538-15.266-27.164-14.382-28.048 0.88399-0.88398 4.614-0.83265 12.129 0.16685 8.7773 1.1674 14.02 2.8617 27.419 8.8607 26.435 11.836 27.151 12.3 41.253 26.749 8.7061 8.9202 14.092 13.52 15.832 13.52 2.857 0 7.9242-3.3552 31.173-20.641 8.3323-6.1954 15.645-11.264 16.251-11.264 2.4443 0 2.2927 4.333-0.80132 22.906-7.5721 45.455-16.394 67.579-35.151 88.155l-8.6183 9.4543 0.72342 53.089c0.66257 48.619 0.55098 53.232-1.3243 54.786-1.5806 1.3094-7.2518 1.6962-24.864 1.6962-12.549 0-24.335-0.17482-26.191-0.38833zm36.651-215.7c-8.9693-9.5913-10.709-12.072-9.817-13.999 0.59602-1.288 6.1054-7.7522 12.243-14.365 6.1375-6.6128 13.492-14.723 16.343-18.024 2.8514-3.3002 5.9691-6.7851 6.9283-7.7442 0.95918-0.95915 7.3183-8.0195 14.131-15.69 6.8133-7.6701 13.097-14.218 13.963-14.55 3.0536-1.1718 31.35 32.027 31.35 36.782 0 1.705-3.929 5.2026-28.768 25.61-10.679 8.774-24.175 19.952-29.991 24.84-5.8157 4.8879-11.679 8.8668-13.029 8.8422-1.4833-0.0271-6.767-4.6568-13.355-11.702zm-40.594-25.792c-9.4241-4.378-17.406-8.2315-17.738-8.5633-1.6846-1.6846 4.5606-10.916 32.397-47.89 34.311-45.573 35.172-46.601 37.794-45.1 3.9552 2.2627 35.242 33.467 35.242 35.149 0 2.7406-1.3109 4.3051-45.469 54.264-7.1586 8.0991-14.061 15.968-15.338 17.487-3.5943 4.2729-8.1196 3.3732-26.888-5.3459zm-52.812-20.277c-20.632-7.7493-23.271-9.207-21.59-11.925 0.83879-1.3566 2.2949-1.39 8.0956-0.18584 7.71 1.6006 14.663 1.0568 31.288-2.4471 22.601-4.7633 24.29-4.4054 20.172 4.2738-2.6189 5.519-14.102 17.833-16.536 17.733-0.98732-0.0407-10.631-3.3926-21.429-7.4486zm50.33-43.265c0.54018-8.6452 0.40983-14.801-0.34181-16.145-0.66826-1.194-7.4952-5.2599-15.171-9.0352-8.1623-4.0146-14.108-7.6931-14.324-8.8608-0.35381-1.9211 28.135-46.146 30.914-47.99 4.2168-2.7976 7.3705-0.63531 26.299 18.032l19.237 18.972-1.9444 3.4759c-1.0694 1.9117-8.8027 12.288-17.185 23.058-8.3825 10.77-17.423 22.481-20.089 26.024-7.5024 9.9688-8.4291 9.025-7.3946-7.5311zm-42.353-38.546c-7.4864-2.5141-44.968-19.168-45.689-20.301-1.4192-2.2304-1.4532-2.1676 8.4802-15.64 5.1822-7.0283 13.271-18.025 17.975-24.436 10.652-14.52 14.216-18.407 16.874-18.407 2.4519 0 13.581 7.9514 27.873 19.915 8.4564 7.0787 10.045 8.9647 9.4104 11.174-0.99636 3.4694-30.033 47.2-31.759 47.83-0.72812 0.26592-2.1522 0.20534-3.1647-0.13461z"/>
 </g>
</svg>
