<?xml version="1.0" encoding="UTF-8"?>
<svg width="225" height="225" version="1.1" viewBox="0 0 225 225" xmlns="http://www.w3.org/2000/svg">
 <path d="m16 112.5c0-45.491 51.009-96.5 96.5-96.5 45.491 0 96.5 51.009 96.5 96.5 0 45.491-51.009 96.5-96.5 96.5-45.491 0-96.5-51.009-96.5-96.5z" fill="#fdfdfd"/>
 <path d="m100.52 211.89c-32.148-3.3839-63.169-25.18-77.416-54.394-8.4992-17.428-11.952-36.1-10.059-54.396 1.5313-14.801 4.1789-23.731 10.81-36.459 14.559-27.946 42.274-47.897 73.266-52.74 11.701-1.8287 31.491-.61694 42.383 2.595 30.416 8.97 54.477 30.585 66.112 59.391 12.504 30.957 7.5757 68.863-12.454 95.789-17.22 23.15-42.021 37.384-70.167 40.273-11.183 1.1476-11.004 1.1481-22.474-.0592zm30.483-34.856c11.902-3.5432 18.619-7.6224 28.028-17.02 13.508-13.491 19.972-28.792 19.972-47.275 0-13.107-5.2467-29.829-12.111-38.6-1.4177-1.8114-1.6044-2.8057-.8067-4.2962 1.746-3.2625.68313-7.9522-2.3059-10.174l-2.7239-2.0247-7.5522 2.3345-2.561-1.8816c-9.6339-7.0784-25.589-12.101-38.439-12.101-12.85 0-28.805 5.0229-38.439 12.101l-2.561 1.8816-7.5521-2.3345-2.7239 2.0247c-2.989 2.2217-4.0519 6.9113-2.3059 10.174.79768 1.4905.61098 2.4848-.80671 4.2962-6.8646 8.771-12.111 25.493-12.111 38.6 0 18.483 6.4637 33.783 19.972 47.275 10.873 10.86 21.07 16.186 37.028 19.339 5.5972 1.1061 20.694-.14441 28-2.3194z" fill="#ddd"/>
 <path d="m94.342 210.52c-40.329-7.3181-72.821-40.024-79.877-80.402-5.7217-32.743 5.3318-66.473 29.219-89.164 27.16-25.8 64.73-34.107 100.61-22.249 31.303 10.345 54.368 34.652 64.328 67.794l2.7046 9 .0278 34-2.1313 7.724c-10.565 38.289-41.21 66.689-79.107 73.311-10.103 1.7655-26.002 1.7589-35.777-.0149zm32.936-5.1922c.84844-.52437.69554-1.6022-1.8907-13.328l-1.4336-6.5h-22.928l-1.5486 7c-.85173 3.85-1.6449 8.35-1.7626 10l-.21399 3 5 .6518c5.2148.67981 23.319.0782 24.778-.82342zm-63.397-25.147 5.175-7.8825-16.278-16.278-8.4495 5.5644c-5.8619 3.8603-8.176 5.9244-7.5564 6.7399 5.6483 7.4349 8.694 10.719 14.144 15.253 3.5285 2.9351 6.7248 5.1453 7.103 4.9116.37821-.23375 3.0164-3.9721 5.8627-8.3075zm115.19-1.224c3.0616-3.0982 6.5624-7.0316 7.7796-8.741l2.2131-3.108-16.837-11.088-16.306 16.306 11.154 16.76 3.2148-2.248c1.7682-1.2364 5.7198-4.7829 8.7814-7.881zm-45.232-2.2496c10.546-3.6897 17.56-8.1659 26.234-16.741 22.166-21.915 25.962-56.178 9.1781-82.843l-3.3844-5.3769 1.1264-2.7194c1.4247-3.4395.40186-7.6397-2.3256-9.5502-2.4322-1.7035-7.7819-1.958-9.2977-.44222-.71261.7126-2.875-.16954-6.95-2.8353-8.4579-5.5328-14.959-7.988-26.254-9.9155l-9.9086-1.6908-9.7444 1.7266c-11.194 1.9835-17.564 4.4109-25.924 9.8798-4.075 2.6658-6.2374 3.5479-6.95 2.8353-1.5158-1.5158-6.8655-1.2613-9.2977.44222-2.7275 1.9104-3.7503 6.1106-2.3257 9.5502l1.1264 2.7194-3.3844 5.3769c-4.804 7.6322-7.3375 14.12-9.3023 23.82-4.9534 24.455 6.0787 51.63 27.029 66.58 13.141 9.377 24.124 12.62 41.02 12.112l12-.36097zm-104.65-50.233c4.0235-.83917 7.9967-1.7358 8.8294-1.9925l1.5141-.46675.0971-22.84-3.0626-.64893c-1.6844-.3569-6.0872-1.2415-9.7838-1.9659l-6.7212-1.3169-.69939 2.1283c-.92935 2.8282-.89907 23.52.03861 26.378.87666 2.6728.55843 2.6492 9.7878.72425zm176.51-1.2242c.91493-3.4278.91548-21.827.00077-25.386l-.67738-2.6357-6.7596 1.3243c-3.7178.72834-8.1378 1.6163-9.8223 1.9732l-3.0626.64893.0972 22.875 3.514.90584c13.891 3.5808 15.824 3.6148 16.71.29415zm-153.99-60.219c.48175-6.8953 5.3346-11.972 12.408-12.981l3.8559-.54999-4.7357-7.2332c-2.6046-3.9782-5.3513-7.2407-6.1037-7.25-1.4168-.017429-21.145 19.328-21.115 20.705.015844.7323 13.909 10.252 14.983 10.267.275.0037.59321-1.3273.70714-2.958zm129.97-1.7812c4.016-2.6125 7.3077-5.1 7.3148-5.5279.023-1.3816-19.705-20.723-21.119-20.705-.75244.0093-3.4991 3.2718-6.1037 7.25l-4.7357 7.2332 3.8559.54999c7.0736 1.009 11.926 6.0859 12.408 12.981.11393 1.6306.40299 2.9657.64236 2.9668.23937.0011 3.7211-2.1355 7.7371-4.748zm-56.761-27.25c2.3531-10.686 3.0912-15.331 2.526-15.896-.78878-.78878-29.086-.78878-29.875 0-.5652.5652.17288 5.2098 2.526 15.896l.99092 4.5h22.841z" fill="#17c6ec"/>
 <path d="m96.554 210.89c-13.369-1.9484-31.618-9.6325-43.054-18.128-59.459-44.175-51.801-135.51 14.139-168.62 64.021-32.154 139.91 11.507 144.02 82.862 3.3269 57.683-42.362 105.51-100.16 104.86-4.95-.0562-11.676-.4921-14.946-.96873zm30.522-5.5649c.78153-.78153-.96559-13.117-2.6035-18.382l-.48458-1.5577h-22.975l-.48458 1.5577c-1.4322 4.6038-3.4074 17.575-2.7698 18.189.40792.3931 2.0917.93615 3.7417 1.2068 4.7384.77719 24.571-.009 25.575-1.0136zm-33.727-10.928c1.0167-5.2798 1.4667-9.9496 1-10.377s-2.6485-1.3439-4.8485-2.0359-6.5532-2.5356-9.6738-4.0967l-5.6738-2.8385-5.5762 8.3805c-3.0669 4.6093-5.5762 8.6409-5.5762 8.9591 0 1.5004 23.221 11.444 27 11.562 1.1094.0346 1.9814-2.4531 3.3485-9.5529zm49.842 6.9794c6.7155-2.4107 14.277-5.9268 17.695-8.2283 1.1043-.74356.22723-2.6727-4.3262-9.5161l-5.7112-8.5834-5.6738 2.8385c-3.1206 1.5612-7.4738 3.4047-9.6738 4.0967s-4.3818 1.6082-4.8485 2.0359c-1.2257 1.1234 2.5857 19.977 4.0389 19.979.65472.001 4.4797-1.1789 8.5-2.6221zm-77.645-23.6 3.5443-5.7236-16.366-16.169-8.4009 5.5907c-5.5203 3.6737-8.1524 6.0082-7.6762 6.8082 2.0837 3.501 9.5573 11.542 14.815 15.939l5.9615 4.9861 2.2891-2.8536c1.259-1.5695 3.8841-5.4292 5.8335-8.5772zm113.45 1.2236c4.3167-4.3167 8.3432-8.7727 8.9477-9.9022l1.0991-2.0536-16.866-11.224-16.307 16.307 3.2693 5.1865c1.7981 2.8526 4.3482 6.6399 5.6668 8.4164l2.3976 3.2299 1.9724-1.0556c1.0848-.58056 5.5042-4.5874 9.821-8.9042zm-50.46-.50208c22.75-5.7334 42.005-24.583 49.033-47.998 1.263-4.2082 1.8154-9.4342 1.8499-17.5l.0492-11.5-2.7072-8.5506c-1.4889-4.7028-4.5584-11.415-6.821-14.915l-4.1138-6.3649 1.0851-2.3816c1.6837-3.6954 1.3013-6.1622-1.3694-8.8329-2.5841-2.5841-8.2244-3.3756-10.173-1.4274-.70283.70284-3.1515-.39741-7.7556-3.4848-4.1133-2.7583-10.108-5.5696-15.423-7.2331l-8.6943-2.7211h-22l-8.6944 2.7211c-5.3151 1.6635-11.31 4.4748-15.423 7.2331-4.6041 3.0874-7.0528 4.1877-7.7556 3.4848-1.9481-1.9481-7.5885-1.1567-10.173 1.4274-2.6707 2.6707-3.0532 5.1376-1.3694 8.8329l1.0851 2.3816-4.1138 6.3649c-2.2626 3.5007-5.332 10.213-6.821 14.915l-2.7072 8.5506.049227 11.5c.05715 13.35 1.5447 19.394 7.7536 31.5 5.8468 11.4 17.152 22.552 28.669 28.279 4.675 2.3247 10.975 4.871 14 5.6583 7.3878 1.9228 25.021 1.9559 32.54.061zm-26.79-27.66c-3.1499-1.1505-4.1123-5.5001-1-4.5197 6.098 1.9209 6.1734 1.9128 8.9685-.95959l2.7815-2.8584 2.7931 2.8554c1.9333 1.9764 3.3955 2.669 4.75 2.25 1.0763-.33294 2.8569-.88283 3.9569-1.222 3.0952-.9543 2.6074 3.0188-.54705 4.4561-3.3118 1.509-4.357 1.459-7.8774-.37682l-2.9244-1.525-3.2267 1.5312c-3.658 1.7359-3.8999 1.7475-7.6745.3689zm-24.435-10.845c-2.6363-1.0622-4.3154-3.9521-4.3154-7.4273 0-6.2965 8.9305-9.0121 12.927-3.9309 3.3651 4.278 2.3694 8.5489-2.6117 11.202-2.5166 1.3403-3.0287 1.3537-6.0004.15636zm64.185-.17666c-4.8385-2.8334-5.7373-6.9737-2.4274-11.182 4.1149-5.2313 12.927-2.3312 12.927 4.2544 0 5.4899-6.0915 9.5087-10.5 6.9271zm-99.063 16.226 7.4428-5.0224-3.4606-7.4901c-1.9033-4.1196-3.7324-8.8492-4.0647-10.51-.38116-1.9058-1.2036-3.0023-2.229-2.9719-3.9154.11634-18.545 3.7118-18.852 4.6332-.4983 1.4949 4.4719 14.926 7.9978 21.613 1.9538 3.7054 3.5362 5.6099 4.3892 5.2826.73362-.28152 4.6831-2.7719 8.7767-5.5342zm153.42.20717c3.5343-7.0332 8.3293-20.18 7.8665-21.568-.30714-.92141-14.937-4.5169-18.852-4.6332-1.0254-.0305-1.8479 1.0661-2.229 2.9719-.33222 1.6611-2.1633 6.395-4.0691 10.52l-3.4651 7.4998 8.1852 5.4801c4.5019 3.014 8.5203 5.4801 8.9297 5.4801.40948 0 2.0448-2.5875 3.634-5.75zm-164.86-30.048 8.5-1.7021.56099-23.214-9.7411-2.0721c-5.3576-1.1397-10.05-1.8809-10.429-1.6472-1.2639.78115-2.1053 14.367-1.3901 22.447l.70695 7.9863 1.6459-.0479c.90526-.02638 5.4709-.81388 10.146-1.75zm175.47-5.7021c.71526-7.6328-.15789-22.19-1.3761-22.943-.36883-.22795-5.0541.518-10.412 1.6577l-9.741 2.0721.28049 11.607.2805 11.607 8 1.6406c4.4.90233 8.9596 1.6898 10.133 1.75l2.1325.1094zm-163.7-28.906c.92907-3.4737 4.9484-13.099 6.9632-16.676.34137-.60597-16.745-12.302-17.149-11.739-3.3332 4.6411-9.6847 19.321-11.004 25.432l-.6717 3.1117 9.7991 2.0299c5.3895 1.1165 10.043 2.0787 10.342 2.1383s1.0729-1.8743 1.721-4.2975zm152.53 1.8173 8.7973-1.7039-.66996-3.1038c-1.3177-6.1045-7.671-20.786-11.002-25.424-.40427-.56291-17.491 11.133-17.149 11.739 2.0151 3.577 6.0342 13.202 6.9636 16.677.85408 3.1933 1.6036 4.2851 2.721 3.9636.84822-.24406 5.501-1.2105 10.34-2.1477zm-140.94-35.831c1.962-2.9944 7.1111-5.58 11.112-5.58 1.3927 0 2.5321-.23553 2.5321-.52341 0-.28787-2.3094-3.8787-5.1319-7.9796l-5.1319-7.4562-3.7901 3.0018c-4.1669 3.3002-17.96 17.774-17.923 18.809.01248.35678 3.5 2.9438 7.75 5.7488l7.7273 5.1001.52782-4.1866c.2903-2.3026 1.3378-5.4228 2.3278-6.9337zm134.62.0724c.03724-1.4015-19.675-20.654-21.13-20.637-1.1452.013388-10.848 12.951-10.848 14.465 0 .28576 1.1394.51956 2.5321.51956 7.2758 0 13.457 6.0854 13.464 13.256l.004 3.7555 7.9775-5.2555c4.3876-2.8905 7.9876-5.6369 8-6.1031zm-104.48-12.073c4.4-1.9551 8.5625-3.5603 9.25-3.567s1.25-.93588 1.25-2.0648c0-1.8409-2.546-14.614-3.5195-17.657-.29425-.91985-1.6571-.83778-5.6838.34227-6.3622 1.8645-21.258 8.6866-22.162 10.15-.8774 1.4197 10.295 17.474 11.726 16.849.62686-.27373 4.7397-2.0973 9.1397-4.0525zm71.934-3.6589c3.0611-4.4439 5.5657-8.4286 5.5657-8.855 0-1.0634-16.291-8.5153-22.797-10.428-4.025-1.1833-5.3897-1.2667-5.6838-.34722-.93222 2.9142-3.5194 15.778-3.5194 17.499 0 1.3191 1.1387 2.2414 3.75 3.0375 2.0625.62875 6.45 2.4655 9.75 4.0816s6.3079 2.9729 6.6843 3.0151c.37636.04217 3.1889-3.5592 6.25-8.0031zm-30.992-8.4203c.80726-3.85 1.7353-8.4018 2.0624-10.115l.59467-3.115-3.1748-.63496c-4.1062-.82123-20.743-.82123-24.85 0l-3.1748.63496.59467 3.115c.32707 1.7133 1.2551 6.265 2.0624 10.115l1.4677 7h22.95z" fill="#060808"/>
</svg>
