<?xml version="1.0" encoding="UTF-8"?>
<svg version="1.1" viewBox="0 0 36 36" xmlns="http://www.w3.org/2000/svg">
 <g>
  <path d="M36 27c0 2.209-1.791 4-4 4H4c-2.209 0-4-1.791-4-4V9c0-2.209 1.791-4 4-4h28c2.209 0 4 1.791 4 4v18z" fill="#c00"/>
  <path d="m8.9333 8.5222-0.55803 1.7174h-1.8058l1.4609 1.0614-0.55803 1.7174 1.4609-1.0614 1.4609 1.0614-0.55803-1.7174 1.4609-1.0614h-1.8058zm0 0.89477 0.35713 1.0991h1.1557l-0.93501 0.67933 0.35713 1.0991-0.93499-0.67931-0.93499 0.67931 0.35713-1.0991-0.93501-0.67933h1.1557z" fill="#ffd700"/>
  <g transform="matrix(.065572 0 0 .0654 -4.0688 6.2864)" fill="#ffd700">
   <path d="m137.44 171.69 18.863 18.994 17.788-17.666c27.058 29.021 55.438 56.995 82.287 86.128 4.0344 4.0623 10.598 4.085 14.661 0.0506 4.0623-4.0344 4.085-10.598 0.0506-14.661-28.819-27.19-57.725-54.601-86.553-81.891l23.965-23.8-33.34-4.616z"/>
   <path d="m198.29 110.2c15.517 8.7394 27.299 21.281 34.248 34.392 7.0439 13.289 10.14 27.162 10.203 38.254 0.13054 22.744-18.438 41.182-41.182 41.182-12.136 0-23.046-5.2487-30.583-13.601l-4.1686 3.5103c-0.70999-0.27231-1.4639-0.41221-2.2243-0.41276-1.8295 1.9e-4 -3.5662 0.80531-4.7486 2.2014-2.9737 0.38896-5.4625 2.4453-6.4053 5.2922-3.1349 6.2884-8.6352 11.22-15.291 13.478-0.0637 0.0216-0.11992 0.05-0.1758 0.0783-3.0775 1.1276-6.1626 3.1643-8.7892 5.8024-5.1916 5.2366-7.7286 11.937-6.3002 16.638-0.14098 0.40857-0.21361 0.83759-0.21498 1.2698 1.5e-4 2.1708 1.7599 3.9306 3.9307 3.9307 0.54341-2e-3 1.0805-0.11639 1.5774-0.33632 4.6937 1.0588 11.069-1.5458 16.054-6.5592 2.8262-2.8507 4.9436-6.2235 5.983-9.5306 2.317-6.6228 7.297-12.019 13.623-15.053 0.15105-0.0725 0.27303-0.14714 0.38218-0.22358 2.1208-1.0141 3.6725-2.929 4.225-5.2139 9.7022 11.445 24.253 18.753 40.519 19.136 29.834 0.70205 52.133-21.258 53.164-52.836 0.51894-15.893-5.6299-36.385-19.641-53.191-10.708-12.844-26.41-23.508-44.187-28.208z"/>
  </g>
 </g>
</svg>
