<?xml version="1.0" encoding="utf-8"?>
<!-- Generator: Adobe Illustrator 26.2.1, SVG Export Plug-In . SVG Version: 6.00 Build 0)  -->
<svg version="1.1" baseProfile="tiny" id="Layer_1_00000026880604206153163030000000039988690831242634_"
	 xmlns="http://www.w3.org/2000/svg" xmlns:xlink="http://www.w3.org/1999/xlink" x="0px" y="0px" viewBox="0 0 418.2 480"
	 overflow="visible" xml:space="preserve">
<g>
	<path fill="none" d="M208.2,102.5c-3,0.1-6.1,0.3-9.1,0.6c-46.9,5.3-84.7,42.2-90.9,89.1c-0.5,3.8-0.8,7.5-0.9,11.2
		c-1.2,42.4,23,79.1,58.5,96.4c7.3,3.6,15.1,6.3,23.3,8.1v-31.4v-3c-22.9-2.9-36.4-11.6-36.4-32.2c0-16.4,10.2-26.4,26-26.4
		c25.8,0,28.4,14.2,49.3,14.2c5.8,0,10.4-3.8,10.4-5.8c0-1.3-1.3-1.6-3.8-1.6c-3.8,0-6,2.5-12.2,2.5c-10.4,0-20.9-6.4-20.9-18.9
		c0-8.4,4.7-13.8,9.3-13.8c4.5,0,1.3,10,22.2,10c10.5,0,16.7-2.9,27.3-2.9c2.2,0,4.2,0.3,6,0.8c8.9,2.4,14,10.2,14,18.5
		c0,20.9-20,42.7-49.3,55.6v34.9c47.8-9.1,84-51.3,84-102c0-16.3-3.7-31.7-10.4-45.4C287.3,125.5,250.5,101.3,208.2,102.5z
		 M168.2,211.6c-12.5,0-20.9-22.2-20.9-39.6c0-9.1,10.4-15.8,18.7-15.8c6.2,0,8.7,22.2,8.9,40.9
		C174.9,208.4,172.7,211.6,168.2,211.6z M190.9,197.1c-10.4,0-14.5-20.7-14.5-41.6c0-10.5,15.8-20.9,24.2-20.9
		c4.7,0,7.1,5.5,7.1,11.3C207.6,157.5,202.2,197.1,190.9,197.1z M224.5,193.3c-10.4,0-14.2-10.9-14.2-19.3
		c0-20.7,2.4-41.6,10.4-41.6c5.8,0,22,5.1,22.2,15.5C242.9,170,234.9,193.3,224.5,193.3z M255.8,197.6c-6.4,0-12.5-7.6-12.5-13.8
		c0-4.2,4.2-39.3,10.4-39.3c6.2,0,16.2,13.3,16.4,21.8C270,174.7,260.4,197.6,255.8,197.6z"/>
	<polygon fill="#5BCEFA" points="230.9,430.9 280,430.9 280,389.1 231.3,389.1 189.1,431.3 189.1,480 230.9,480 	"/>
	<polygon fill="#5BCEFA" points="107.3,27.3 81.8,52.7 54.5,25.5 90.9,25.5 76.4,0 1,0 0,1 0,76.4 25.5,90.9 25.5,53.8 52.7,81.1 
		27.3,106.5 38.3,117.5 117.9,37.9 	"/>
	
		<rect x="417.7" y="-0.2" transform="matrix(0.7071 -0.7071 0.7071 0.7071 122.0063 295.5019)" fill="#F5A9B8" width="0" height="1.3"/>
	<path fill="#F5A9B8" d="M230.9,389.1v-40c78.5-11.6,132.5-84.7,120.9-163.1c-2.8-18.9-9.3-37-19.1-53.2L304.5,161
		c6.6,13.7,10.4,29.1,10.4,45.4c0,50.7-36.2,92.9-84,102v-34.9c29.3-12.9,49.3-34.7,49.3-55.6c0-8.3-5.1-16-14-18.5l-77.1,77.1v31.4
		c-8.2-1.8-16-4.5-23.3-8.1l-30,30c16.4,9.6,34.5,16,53.4,18.6v40.7H140v41.8h49.1v0.4l42.2-42.2H230.9z"/>
	<polygon fill="#F5A9B8" points="392.7,90.9 418.2,76.4 418.2,47.3 392.7,72.8 	"/>
	<path fill="#F5A9B8" d="M108.2,192.2c6.2-46.9,44-83.8,90.9-89.1c3.1-0.3,6.1-0.6,9.1-0.6l35.2-35.2
		c-41.3-10.1-86.2-1.7-121.6,25.4l-18.2-18.2l25.5-25.5l-11.2-11.2l-79.6,79.6l10.8,10.8l25.5-25.5l18.2,18.2
		C66.3,157,59.2,201.2,69.3,241.3l37.9-37.9C107.4,199.7,107.7,196,108.2,192.2z"/>
	<path fill="#AAAAAA" d="M166,156.2c-8.4,0-18.7,6.7-18.7,15.8c0,17.5,8.4,39.6,20.9,39.6c4.5,0,6.7-3.3,6.7-14.5
		C174.7,178.4,172.2,156.2,166,156.2z"/>
	<path fill="#AAAAAA" d="M107.3,203.4l-37.9,37.9c7.9,31.2,26.3,60,54.3,80.5c3.9,2.9,7.9,5.5,12.1,8l30-30
		C130.3,282.5,106.1,245.8,107.3,203.4z"/>
	<path fill="#AAAAAA" d="M253.6,144.5c-6.2,0-10.4,35.1-10.4,39.3c0,6.2,6.2,13.8,12.5,13.8c4.5,0,14.2-22.9,14.2-31.3
		C269.8,157.8,259.8,144.5,253.6,144.5z"/>
	<path fill="#AAAAAA" d="M232.9,201.5c-20.9,0-17.6-10-22.2-10c-4.5,0-9.3,5.5-9.3,13.8c0,12.5,10.5,18.9,20.9,18.9
		c6.2,0,8.4-2.5,12.2-2.5c2.5,0,3.8,0.4,3.8,1.6c0,2-4.5,5.8-10.4,5.8c-20.9,0-23.5-14.2-49.3-14.2c-15.8,0-26,10-26,26.4
		c0,20.5,13.5,29.3,36.4,32.2v3l77.1-77.1c-1.8-0.5-3.8-0.8-6-0.8C249.6,198.5,243.5,201.5,232.9,201.5z"/>
	<path fill="#AAAAAA" d="M304.5,161l28.2-28.2c-2.3-3.8-4.7-7.4-7.3-11l67.3-67.3v18.2l25.5-25.5V1l-1-1h-75.4l-14.5,25.5h36.4
		l-67.3,67.3c-16.1-12.3-34.2-20.8-53-25.4l-35.2,35.2C250.5,101.3,287.3,125.5,304.5,161z"/>
	<path fill="#AAAAAA" d="M200.5,134.5c-8.4,0-24.2,10.4-24.2,20.9c0,20.9,4.2,41.6,14.5,41.6c11.3,0,16.7-39.6,16.7-51.3
		C207.6,140,205.3,134.5,200.5,134.5z"/>
	<path fill="#AAAAAA" d="M220.7,132.4c-8,0-10.4,20.9-10.4,41.6c0,8.4,3.8,19.3,14.2,19.3s18.4-23.3,18.4-45.5
		C242.7,137.5,226.5,132.4,220.7,132.4z"/>
</g>
</svg>
